<svg id="Слой_1" xmlns="http://www.w3.org/2000/svg" viewBox="0 0 419.7 94.1" width="283" height="64">
  <style>
    .st1{fill:#ffffff}
  </style>
  <g>
    <g>
      <path d="M63 87.1v-.2-.2c.1-1.6.7-3 1.9-4.4 1.2-1.3 2.8-2 4.7-2 2 0 3.5.7 4.7 2s1.9 2.8 1.9 4.4v.8c-.1 1.6-.7 3-1.9 4.3-1.2 1.3-2.8 1.9-4.7 1.9-1.9 0-3.5-.6-4.7-1.9-1.2-1.3-1.8-2.7-1.9-4.3v-.2-.2zm.8 0c0 1.8.6 3.2 1.8 4.2 1.2 1.1 2.5 1.6 4 1.6h.4c1.4 0 2.8-.6 4-1.6 1.2-1.1 1.8-2.5 1.8-4.2 0-1.8-.6-3.2-1.8-4.3-1.2-1.1-2.5-1.6-4-1.6h-.1-.2-.1c-1.4 0-2.8.6-4 1.6-1.2 1.1-1.8 2.5-1.8 4.3zm6.6-3.5h.4c.2 0 .4.1.6.2.3.1.5.3.7.5s.3.6.3 1v.4c-.1.3-.2.5-.4.7-.2.2-.5.4-1 .6l1.4 2.2c.1.1.1.2.2.3 0 .1.1.1.1.2l.1.1s.1 0 .2.1H73.3v.4H72l-1.8-3h-1.5v2.1c0 .1 0 .1.1.2 0 .1.1.1.2.2s.2.1.3.1v.4h-2v-.4c.2 0 .4-.1.5-.3.1-.1.1-.3.1-.5v-4.4c0-.3 0-.4-.1-.6-.1-.1-.2-.2-.4-.2v-.3h3zm-.8 3.2h.4c.2 0 .3 0 .5-.1s.5-.2.7-.4c.2-.2.3-.5.3-.9s-.1-.7-.3-.9c-.2-.2-.4-.3-.7-.3-.1 0-.3 0-.4-.1h-1.4v2.7h.9z" fill="#264796"/>
      <path class="st1" d="M99.9 53.6L117.8 27l6-.1v35h-6V35.3L99.9 61.9h-6v-35h6zM136.7 45.5v16.4h-6v-35h6v14.7h16.8V26.9h6v35h-6V45.5zM174.1 30.9h-11.7v-4h29.4v4h-11.7v31h-6zM200.5 41.9h18.8v3.9h-18.8v12.1h21.3v4h-27.3v-35h26.7v4h-20.7zM224.8 26.9h14.5c3.6 0 6.4.5 8.5 1.5 3.3 1.6 4.9 4.4 4.9 8.5 0 2.8-.7 5.1-2 6.8-2.2 2.8-6.2 4.3-11.9 4.3h-8.1v13.9h-6l.1-35zm6 4V44h7.5c3 0 5.1-.6 6.4-1.8 1.3-1.2 1.9-2.9 1.9-5.2 0-2.1-.7-3.7-2-4.7s-3.4-1.5-6.3-1.5l-7.5.1zM282 50.3h6c-.4 3.3-1.6 6-3.6 8.1-2.7 3-6.8 4.5-12.2 4.5-6 0-10.6-1.9-13.7-5.6-2.6-3.2-3.9-7.3-3.9-12.3 0-2.6.2-4.9.7-6.9.9-3.5 2.4-6.2 4.6-8.2 2.9-2.7 6.9-4 12.1-4 4.1 0 7.5.7 10.1 2.2 3.6 2 5.3 5.2 5.3 9.6h-5.9c-.4-2.8-1.5-4.9-3.4-6.2-1.5-1.1-3.6-1.6-6.1-1.6-3.6 0-6.4 1.3-8.3 3.9s-2.9 6.3-2.9 11c0 4.6 1.2 8.2 3.5 10.8 2.1 2.3 4.8 3.4 8 3.4 2.8 0 5.1-.9 6.9-2.6 1.9-1.7 2.8-3.8 2.8-6.1zM292.1 26.9h15.6c4 0 6.9.8 9 2.4 2 1.6 3 3.8 3 6.5 0 1.8-.6 3.3-1.9 4.7-1.2 1.4-2.9 2.3-5.1 2.7v.3c2.2.3 4 1 5.5 2.1 2 1.6 3 3.7 3 6.5 0 3.2-1.1 5.6-3.4 7.2-2.3 1.7-5.8 2.5-10.6 2.5h-15.1V26.9zm6 4v10.9h8.3c2.5 0 4.3-.5 5.4-1.4s1.7-2.3 1.7-4.1c0-1.5-.4-2.7-1.2-3.6-1.1-1.2-3-1.8-5.7-1.8h-8.5zm0 14.9V58h8.7c2.4 0 4.3-.3 5.5-.9 1.9-1 2.8-2.7 2.8-5.2 0-2.1-.7-3.6-2-4.6-1.3-.9-3.4-1.4-6.4-1.4l-8.6-.1zM347.6 48h-7l-8.8 13.9h-7l9.8-14.4c-2.8-.3-5.1-1.3-6.9-2.9-2-1.8-3-4.2-3-7.2 0-4.1 1.6-6.9 4.7-8.6 2.2-1.2 5.2-1.8 8.9-1.8h15.2v35h-6l.1-14zm0-17.1h-8.8c-2.6 0-4.6.6-6 1.8-1.3 1.2-2 2.8-2 4.7 0 2.4.8 4.1 2.5 5.2 1.4.9 3.5 1.4 6.1 1.4h8.1l.1-13.1zM356.6 51.2h6c0 2.1.6 3.8 1.8 5.1 1.7 1.8 4.2 2.7 7.7 2.7 2.7 0 4.7-.6 6.2-1.8 1.4-1.2 2.1-2.9 2.1-5.1 0-2.4-.8-4.1-2.4-5.2-1.4-.9-3.3-1.3-5.9-1.3h-4.6v-4h4.2c2.4 0 4.3-.5 5.5-1.4s1.8-2.3 1.8-4.1c0-2-.7-3.6-2-4.6-1.3-1-3.2-1.5-5.7-1.5-2.2 0-4 .4-5.3 1.1-1.9 1.1-2.9 3-2.9 5.6h-6c0-2.5.8-4.6 2.3-6.4 2.4-2.9 6.5-4.3 12.3-4.3 4.5 0 7.9.9 10.2 2.8 2.1 1.7 3.2 4 3.2 6.9 0 2.2-.7 4-2.2 5.3-1.2 1.1-2.8 1.9-4.9 2.2v.2c2.4.4 4.4 1.3 5.8 2.5 1.8 1.6 2.7 3.8 2.7 6.5 0 2.9-.9 5.2-2.8 6.9-2.4 2.3-6.2 3.5-11.4 3.5-5 0-8.9-.9-11.6-2.8-2.6-1.8-4.1-4.8-4.1-8.8zM397.9 26.9v14.3h9.1c4 0 7.1.9 9.3 2.7 2.2 1.8 3.4 4.4 3.4 7.7 0 3.8-1.4 6.6-4.3 8.3-2.2 1.3-5 1.9-8.4 1.9h-15.1v-35l6 .1zm0 18.3V58h8.3c1.2 0 2.2-.1 3.1-.4 2.9-.9 4.3-2.9 4.3-6 0-2-.7-3.6-2-4.7-1.4-1.1-3.3-1.7-5.8-1.7h-7.9z"/>
      <g>
        <linearGradient id="SVGID_1_" gradientUnits="userSpaceOnUse" x1="-16848.742" y1="7310.519" x2="-16848.742" y2="8666.789" gradientTransform="matrix(.02835 0 0 -.02835 534.078 292.277)">
          <stop offset="0" stop-color="#ffffff"/>
          <stop offset="1" stop-color="#ffffff"/>
        </linearGradient>
        <path d="M69.1 52.5l-1.7 6c-2.1 2.6-6.2 7.4-10.9 11.7-4 3.8-7.1 8.5-9.7 9.6l-9.2 8 .5.3c1.8-1.3 3.4-2.6 5-3.7C48.6 80 57 73.5 59.3 71.5 63.3 68 72.9 59.8 75 53c.7-2.9.3-5.6-.7-7.8-.3-.6-.7-1.1-1.1-1.6l-5.9 3.8 1.8 5.1z" fill="url(#SVGID_1_)"/>
        <linearGradient id="SVGID_2_" gradientUnits="userSpaceOnUse" x1="-18584.691" y1="9266.624" x2="-16315.489" y2="8433.519" gradientTransform="matrix(.02835 0 0 -.02835 534.078 292.277)">
          <stop offset="0" stop-color="#43374e"/>
          <stop offset=".102" stop-color="#3e388a"/>
          <stop offset=".161" stop-color="#a9aed6"/>
          <stop offset=".761" stop-color="#a9aed6"/>
          <stop offset=".788" stop-color="#3e388a"/>
          <stop offset=".831" stop-color="#a9aed6"/>
          <stop offset=".89" stop-color="#3e388a"/>
          <stop offset=".949" stop-color="#2f2230"/>
          <stop offset="1" stop-color="#2f2230"/>
        </linearGradient>
        <path d="M70.3 40.6c2.1 1.3 3.7 3.1 4.4 5 1.2 3.3 1.7 7.3-2.8 13.1l-2.8-6.4-2.5-5.7-6.7-2.2H19c-3-.5-6-.8-8.9-1.5-2.9-1.8-3.7-3.7-3.8-6.7 0-1 .1-1.6.2-2.3l4.2-.1c.5 1 1.9 2.7 3 3.5 1.4.8 3 1.2 3.9 1.3.5.1.9.1.9.1s28.4-.8 42.3-.2c1.5.1 2.8.2 3.9.3 1.8.2 3.6.9 5.6 1.8z" fill="url(#SVGID_2_)"/>
        <linearGradient id="SVGID_3_" gradientUnits="userSpaceOnUse" x1="-18456.961" y1="9294.06" x2="-17736.59" y2="10160.011" gradientTransform="matrix(.02835 0 0 -.02835 534.078 292.277)">
          <stop offset="0" stop-color="#43385b"/>
          <stop offset=".02" stop-color="#42366d"/>
          <stop offset=".071" stop-color="#2f2230"/>
          <stop offset="1" stop-color="#2e2230"/>
        </linearGradient>
        <path d="M6.4 34C8.2 21.7 23 13.3 28.7 7.8l8.9-7 .1.2c-.5 1-1.9 2.4-3.6 4-4 3.2-9.2 7.2-10.9 9.3-1.9 1.5-3.6 3.2-5.1 4.9-2.7 2.8-4.9 5.5-6.3 8-.2.5-.5 1-.6 1.5-.2.6-.4 1.1-.5 1.7-.3 1.3-.2 2.3 0 3.2l.1.2-4.4.2z" fill="url(#SVGID_3_)"/>
        <linearGradient id="SVGID_4_" gradientUnits="userSpaceOnUse" x1="-18325.873" y1="10179.934" x2="-18095.613" y2="8862.703" gradientTransform="matrix(.02835 0 0 -.02835 534.078 292.277)">
          <stop offset="0" stop-color="#d9dbea"/>
          <stop offset=".502" stop-color="#d9dbea"/>
          <stop offset=".78" stop-color="#3e388a"/>
          <stop offset="1" stop-color="#2f2230"/>
        </linearGradient>
        <path d="M.5 36.7c-.4 1.3-.4 2.9-.2 4 .3 1.9 1 3.5 1.7 4.7 2.8-.8 5.5-1.7 8.3-2.5-2.7-1.4-4.2-4.6-3.9-7.7C9.1 19.9 28.1 9.5 35.2 2.7c-1.9 1.4-4.5 3.4-7.8 6-11.8 8.5-24.6 19-26.9 28z" fill="url(#SVGID_4_)"/>
        <linearGradient id="SVGID_5_" gradientUnits="userSpaceOnUse" x1="-18774.066" y1="8606.968" x2="-16403.021" y2="8606.968" gradientTransform="matrix(.02835 0 0 -.02835 534.078 292.277)">
          <stop offset="0" stop-color="#2f2230"/>
          <stop offset="1" stop-color="#2f2230"/>
        </linearGradient>
        <path d="M1.9 45.2c.8 1.6 2.7 3.2 4.3 3.9 2.7 1.1 6.5 1.6 10.9 1.8h15.6c6.3-.2 12.7-.2 18.2-.2 1.5.1 3 0 4.6.2 0 0 5.3.2 7.9 2.8l.2.2c1.8-.5 3.7-1 5.5-1.4.1-1.9-.5-3.9-1.8-5.3-1.8-1.8-5-2.7-7.5-2.9L19 44c-3-.2-6.2-.4-9-1.3l-8.1 2.5z" fill="url(#SVGID_5_)"/>
        <linearGradient id="SVGID_6_" gradientUnits="userSpaceOnUse" x1="-16960.816" y1="8463.199" x2="-16960.816" y2="7505.919" gradientTransform="matrix(.02835 0 0 -.02835 534.078 292.277)">
          <stop offset="0" stop-color="#2f2230"/>
          <stop offset=".078" stop-color="#3e3486"/>
          <stop offset=".31" stop-color="#c6cae6"/>
          <stop offset="1" stop-color="#d9dbea"/>
        </linearGradient>
        <path d="M61.3 52.4c2.5-.6 5.1-1.1 7.6-1.7.7 2.4-.6 5.4-1.6 7.9-4.2 8.3-21.9 23.3-29.8 29.3 2.8-2.6 6.1-5.7 9.8-9 7.5-6.8 16.4-15.6 17.3-20 .1-.4.1-.7.1-1 .1-1.5-.3-2.7-1.1-3.6-.5-1-1.4-1.4-2.3-1.9z" fill="url(#SVGID_6_)"/>
      </g>
    </g>
  </g>
</svg>
