<svg width="172" height="32" viewBox="0 0 172 32" fill="none" xmlns="http://www.w3.org/2000/svg">
<path fill-rule="evenodd" clip-rule="evenodd" d="M6.01444 2H27.9495V23.935C27.9495 27.2708 25.2202 29.9495 21.935 29.9495H10.5632C10.0072 29.9495 9.45126 29.8989 8.94585 29.7978L23.1986 11.704L18.852 7.30686H14.3538L18.3466 11.6029L3.43682 27.2202C3.18412 26.9675 2.93141 26.7148 2.6787 26.4621L17.2852 11.704L11.8267 6.29603H23.6534V18.1227L21.1769 15.3935L19.0036 18.2238L25.9783 25.1986V4.02166H4.80144L12.5848 11.8051L0.0505415 20.5993C0 20.1949 0 19.8412 0 19.4368V8.01444C0 4.72924 2.72924 2 6.01444 2Z" fill="#FE0027"/>
<path d="M59.8824 17.6881H57.2746V25.0194H54.1749V8.14282H57.2746V15.1296H59.9316L64.9503 8.14282H68.4437L62.4409 16.3597L68.6897 25.0194H65.1963L59.8824 17.6881Z" fill="#ffffff"/>
<path d="M70.7562 8.14282H82.6633V10.7506H73.8068V14.736H78.235C79.3667 14.736 80.3507 14.9328 81.1872 15.3756C82.0236 15.8184 82.6633 16.4089 83.1553 17.1469C83.5981 17.9342 83.8441 18.8198 83.8441 19.8531C83.8441 20.8863 83.5981 21.8212 83.1553 22.5592C82.7125 23.3465 82.0236 23.9369 81.1872 24.3305C80.3507 24.7733 79.3667 24.9701 78.235 24.9701H70.7562V8.14282ZM77.743 22.4608C78.6778 22.4608 79.4159 22.264 79.9571 21.8212C80.4983 21.3783 80.7444 20.7387 80.7444 19.9023C80.7444 19.0658 80.4983 18.377 79.9571 17.9342C79.4159 17.4913 78.6778 17.2453 77.743 17.2453H73.8068V22.4608H77.743Z" fill="#ffffff"/>
<path d="M96.9812 17.6881H94.3735V25.0194H91.2737V8.14282H94.3735V15.1296H97.0304L102.049 8.14282H105.542L99.5397 16.3597L105.788 25.0194H102.295L96.9812 17.6881Z" fill="#ffffff"/>
<path d="M117.696 22.3132C117.154 23.2972 116.367 24.0353 115.383 24.5765C114.399 25.1177 113.267 25.3637 112.037 25.3637C110.758 25.3637 109.626 25.1177 108.642 24.5765C107.658 24.0353 106.871 23.2972 106.33 22.3132C105.789 21.3291 105.493 20.2467 105.493 18.9674V18.869C105.493 17.6389 105.789 16.5073 106.33 15.5724C106.871 14.6376 107.658 13.8995 108.642 13.3583C109.626 12.8171 110.758 12.571 112.037 12.571C113.316 12.571 114.399 12.8171 115.383 13.3583C116.367 13.8995 117.105 14.6376 117.696 15.5724C118.237 16.5073 118.532 17.5897 118.532 18.869V18.9674C118.532 20.2467 118.237 21.3783 117.696 22.3132ZM108.839 21.1323C109.134 21.7227 109.577 22.1656 110.118 22.51C110.66 22.8544 111.299 23.002 111.988 23.002C112.726 23.002 113.366 22.8544 113.907 22.51C114.448 22.1656 114.891 21.7227 115.186 21.1323C115.481 20.5419 115.629 19.853 115.629 19.0166V18.9182C115.629 18.1309 115.481 17.4421 115.186 16.8517C114.891 16.2612 114.448 15.8184 113.907 15.5232C113.366 15.1788 112.726 15.0312 112.037 15.0312C111.348 15.0312 110.709 15.1788 110.118 15.5232C109.577 15.8676 109.134 16.3105 108.839 16.8517C108.544 17.4421 108.396 18.1309 108.396 18.9182V18.9674C108.396 19.8038 108.544 20.5419 108.839 21.1323Z" fill="#ffffff"/>
<path d="M128.422 25.0193V19.9022H123.501V25.0193H120.648V12.9646H123.501V17.5897H128.422V12.9646H131.276V25.0193H128.422Z" fill="#ffffff"/>
<path d="M139.935 15.2771V25.0193H137.081V15.2771H133.047V12.9646H143.97V15.2771H139.935Z" fill="#ffffff"/>
<path d="M170.588 22.3132C170.096 23.248 169.408 23.9861 168.571 24.5273C167.735 25.0685 166.751 25.3145 165.619 25.3145C164.733 25.3145 163.946 25.1669 163.257 24.9209C162.568 24.6257 161.978 24.2321 161.535 23.6416V29.3H158.681V12.9647H161.338V14.6868C161.781 13.9979 162.372 13.4567 163.11 13.1123C163.848 12.7678 164.684 12.6202 165.668 12.6202C166.751 12.6202 167.735 12.8663 168.571 13.4075C169.408 13.8995 170.096 14.6376 170.588 15.5724C171.081 16.5073 171.327 17.5897 171.327 18.869V18.9674C171.327 20.2467 171.081 21.3783 170.588 22.3132ZM168.424 18.869C168.424 18.1309 168.276 17.4421 167.981 16.8517C167.686 16.2612 167.292 15.8184 166.751 15.5232C166.209 15.1788 165.619 15.0312 164.93 15.0312C164.241 15.0312 163.651 15.1788 163.11 15.5232C162.568 15.8184 162.126 16.2612 161.83 16.8517C161.535 17.4421 161.388 18.0817 161.388 18.869V18.9674C161.388 19.7546 161.535 20.4927 161.83 21.0339C162.126 21.6243 162.568 22.0672 163.06 22.3624C163.602 22.6576 164.192 22.8544 164.881 22.8544C165.57 22.8544 166.16 22.7068 166.701 22.3624C167.243 22.018 167.636 21.5751 167.932 20.9847C168.227 20.3943 168.374 19.7054 168.374 18.9182V18.869H168.424Z" fill="#ffffff"/>
<path d="M50.1895 20.5419C49.599 21.0339 49.107 21.4275 48.615 21.7227C48.1229 22.0671 47.6309 22.3132 47.1389 22.4608C46.6469 22.6084 46.1056 22.7068 45.5152 22.7068C44.4819 22.7068 43.5963 22.4608 42.8091 21.9195C42.0218 21.4275 41.4314 20.6895 40.9886 19.7546C40.5457 18.8198 40.3489 17.7373 40.3489 16.5072C40.3489 15.2772 40.5457 14.2439 40.9886 13.3091C41.4314 12.3742 42.0218 11.6854 42.8091 11.1933C43.5963 10.7013 44.5311 10.4553 45.5644 10.4553C46.3024 10.4553 46.9913 10.6029 47.6801 10.8489C48.3198 11.0949 49.0578 11.587 49.8942 12.2758L51.6655 10.1109C50.6815 9.27444 49.7958 8.68401 48.861 8.29038C47.9261 7.89676 46.8437 7.69995 45.6136 7.69995C44.2851 7.69995 43.1535 7.89676 42.1202 8.33959C41.087 8.78241 40.2013 9.42205 39.5125 10.2093C38.7744 10.9965 38.2332 11.9314 37.8396 13.0138C37.446 14.0963 37.2491 15.228 37.2491 16.5072C37.2491 17.7865 37.446 18.9674 37.8396 20.0498C38.2332 21.1323 38.7744 22.0671 39.5125 22.9036C40.2505 23.6908 41.087 24.3305 42.1202 24.7733C43.1535 25.2161 44.2851 25.4129 45.5644 25.4129C46.4008 25.4129 47.1881 25.3145 47.9261 25.1177C48.6642 24.9209 49.353 24.6257 49.9926 24.1829C50.6323 23.7892 51.2719 23.2972 51.9608 22.6576L50.1895 20.5419Z" fill="#ffffff"/>
<path d="M157.156 12.9646H154.302L153.171 16.3104C152.826 17.2944 152.531 18.2785 152.236 19.2133C151.941 20.1482 151.645 21.0831 151.399 21.9687C151.252 21.4275 151.055 20.8862 150.858 20.2958C150.661 19.7054 150.465 19.0657 150.268 18.3769C150.071 17.6881 149.825 16.9992 149.579 16.2612L148.447 12.9154H145.446L149.973 25.7081C149.825 26.0033 149.677 26.2493 149.53 26.3969C149.382 26.5938 149.185 26.6922 148.939 26.7906C148.693 26.8398 148.447 26.889 148.103 26.889H146.676L147.512 29.2015H148.447C149.235 29.2015 149.874 29.0539 150.415 28.8079C150.957 28.5619 151.35 28.1682 151.744 27.627C152.088 27.0858 152.433 26.3969 152.728 25.5113C152.728 25.6097 157.156 12.9646 157.156 12.9646Z" fill="#ffffff"/>
</svg>
