<?xml version="1.0" standalone="no"?>
<!DOCTYPE svg PUBLIC "-//W3C//DTD SVG 20010904//EN"
 "http://www.w3.org/TR/2001/REC-SVG-20010904/DTD/svg10.dtd">
<svg version="1.0" xmlns="http://www.w3.org/2000/svg"
 width="88.000000pt" height="89.000000pt" viewBox="0 0 88.000000 89.000000"
 preserveAspectRatio="xMidYMid meet">

<g transform="translate(0.000000,89.000000) scale(0.100000,-0.100000)"
fill="#7D61F2" stroke="none">
<path d="M300 872 c-113 -38 -209 -125 -263 -240 -57 -121 -49 -293 19 -408
37 -63 126 -141 201 -177 122 -57 293 -49 409 19 63 37 141 126 177 201 57
122 49 293 -19 409 -37 63 -126 141 -201 177 -60 28 -80 32 -168 34 -76 2
-113 -1 -155 -15z m168 -134 c26 -26 11 -54 -85 -150 l-98 -98 233 0 232 0 0
-40 0 -40 -232 0 -233 0 98 -98 c101 -101 116 -131 77 -152 -12 -6 -29 -9 -38
-6 -10 4 -77 66 -150 139 -95 96 -132 140 -132 157 0 18 38 62 138 162 136
136 162 154 190 126z"/>
</g>
</svg>
