<?xml version="1.0" standalone="no"?>
<!DOCTYPE svg PUBLIC "-//W3C//DTD SVG 20010904//EN"
 "http://www.w3.org/TR/2001/REC-SVG-20010904/DTD/svg10.dtd">
<svg width="136" height="169" viewBox="0 0 136 169" fill="none" xmlns="http://www.w3.org/2000/svg">
  <path d="M136 20C136 8.9543 127.046 0 116 0H87.5L136 51.5V20Z" fill="#7D61F2" fill-opacity="0.3"/>

  <path d="M87.5 0V38C87.5 44 85.5 51.5 100 51.5H136L87.5 0Z" fill="#7D61F2" fill-opacity="0.5"/>
  <path d="M0 149C0 160.046 8.95431 169 20 169H116C127.046 169 136 160.046 136 149V51.5H100C85.5 51.5 87.5 44 87.5 38V0H20C8.95431 0 0 8.9543 0 20V149Z" fill="#7D61F2" fill-opacity="0.5"/>

  <path d="M135 20V48.9795L89.8154 1H116C126.493 1 135 9.50659 135 20ZM86.5 1V38C86.5 38.6238 86.4778 39.2641 86.4546 39.9311C86.4507 40.0429 86.4468 40.1555 86.443 40.2689C86.4165 41.0493 86.394 41.8603 86.4144 42.6659C86.4549 44.2689 86.6651 45.9413 87.4181 47.4472C88.9905 50.592 92.6285 52.5 100 52.5H135V149C135 159.493 126.493 168 116 168H20C9.50659 168 1 159.493 1 149V20C1 9.50659 9.50659 1 20 1H86.5ZM88.5 2.52046L133.685 50.5H100C92.8715 50.5 90.2595 48.658 89.2069 46.5528C88.6474 45.4337 88.4514 44.1061 88.4137 42.6154C88.395 41.8741 88.4155 41.1148 88.4418 40.3365C88.4446 40.2542 88.4475 40.1716 88.4503 40.0887C88.4513 40.0611 88.4523 40.0334 88.4532 40.0057C88.4764 39.3408 88.5 38.6614 88.5 38V2.52046Z" stroke="#7D61F2" stroke-width="2" stroke-linecap="round" stroke-linejoin="round"/>
  <path d="M68 60V115M68 115L45 90M68 115L90 90" stroke="#7D61F2" stroke-width="2.5" stroke-linecap="round" stroke-linejoin="round"/>

  <path d="M45 140H90" stroke="#7D61F2" stroke-width="2.5" stroke-linecap="round"/>
</svg>